<?xml version="1.0" standalone="no"?>
<!DOCTYPE svg PUBLIC "-//W3C//DTD SVG 20010904//EN"
 "http://www.w3.org/TR/2001/REC-SVG-20010904/DTD/svg10.dtd">
<svg version="1.0" xmlns="http://www.w3.org/2000/svg"
 width="2000.000000pt" height="2000.000000pt" viewBox="0 0 2000.000000 2000.000000"
 preserveAspectRatio="xMidYMid meet">

<g transform="translate(0.000000,2000.000000) scale(0.100000,-0.100000)"
fill="#000000" stroke="none">
<path d="M10245 15718 c-493 -19 -973 -146 -1429 -378 -347 -176 -610 -371
-887 -658 -403 -416 -712 -963 -879 -1558 -22 -77 -40 -144 -40 -147 0 -4 251
-6 557 -5 l557 3 37 180 c60 295 108 460 201 695 302 766 806 1239 1518 1424
239 62 322 71 630 70 252 0 287 -2 421 -27 240 -43 414 -99 608 -197 568 -284
936 -767 1214 -1591 l52 -154 79 -3 79 -3 -6 73 c-4 40 -38 557 -77 1148 -39
591 -73 1090 -76 1108 l-5 33 -86 -3 -86 -3 -31 -95 c-79 -238 -198 -365 -360
-385 -76 -10 -137 10 -366 120 -585 279 -1034 376 -1625 353z"/>
<path d="M6890 12501 l0 -89 203 -5 c223 -5 303 -19 414 -75 137 -69 205 -148
248 -285 61 -193 59 -87 63 -2542 2 -1522 0 -2292 -7 -2402 -24 -355 -71 -487
-211 -597 -130 -102 -221 -127 -495 -135 l-210 -6 -3 -87 -3 -88 1673 0 c1653
0 1839 3 2160 35 668 66 1072 224 1407 549 415 404 595 953 485 1485 -61 297
-259 611 -512 812 -189 151 -441 266 -765 349 -135 35 -138 38 -52 66 84 27
310 139 402 199 327 213 538 505 629 870 31 125 43 372 25 510 -46 342 -193
637 -441 885 -346 346 -845 543 -1546 610 -251 23 -660 30 -2026 30 l-1438 0
0 -89z m2985 -245 c523 -57 838 -189 1121 -473 240 -239 364 -534 364 -863 0
-430 -196 -817 -520 -1028 -234 -152 -513 -218 -1028 -244 -340 -17 -812 7
-1039 53 l-53 10 0 1228 0 1229 83 20 c280 69 768 100 1072 68z m2 -2957 c532
-43 958 -200 1253 -460 181 -159 327 -419 391 -699 29 -125 36 -347 15 -477
-65 -409 -330 -749 -731 -943 -171 -82 -327 -128 -565 -166 -140 -22 -599 -30
-798 -15 -161 13 -422 49 -602 84 l-115 22 -3 1312 c-2 1243 -1 1312 15 1317
18 5 224 24 323 29 150 8 704 6 817 -4z"/>
<path d="M9203 8923 l-93 -4 0 -128 0 -128 93 -26 c243 -68 412 -100 682 -127
150 -15 597 -13 750 4 198 23 235 28 235 36 0 10 -107 87 -185 133 -95 55
-280 130 -397 161 -284 73 -599 96 -1085 79z"/>
<path d="M6903 11833 c20 -625 183 -1219 469 -1716 l53 -92 3 780 c3 756 -3
966 -29 1085 -24 106 -63 122 -318 128 l-184 4 6 -189z"/>
<path d="M12849 10227 c-170 -226 -310 -389 -492 -572 -142 -143 -166 -171
-152 -180 36 -22 152 -108 175 -131 l26 -24 80 83 c216 221 392 460 630 859 5
7 -139 108 -153 107 -4 0 -56 -64 -114 -142z"/>
</g>
</svg>
